<?xml version="1.0"?>


<svg xmlns="http://www.w3.org/2000/svg" xml:space="preserve" width="297mm" height="210mm" version="1.1" style="shape-rendering:geometricPrecision; text-rendering:geometricPrecision; image-rendering:optimizeQuality; fill-rule:evenodd; clip-rule:evenodd" viewBox="0 0 29700 21000" xmlns:xlink="http://www.w3.org/1999/xlink" xmlns:xodm="http://www.corel.com/coreldraw/odm/2003">
 <defs>
  <linearGradient id="logoGradient" gradientUnits="userSpaceOnUse" x1="3600" y1="13600" x2="22400" y2="5200">
   <stop offset="0" stop-color="#fff94a"></stop>
   <stop offset="0.16" stop-color="#dfff42"></stop>
   <stop offset="0.34" stop-color="#8fff76"></stop>
   <stop offset="0.52" stop-color="#82ffe8"></stop>
   <stop offset="0.74" stop-color="#00f2ff"></stop>
   <stop offset="1" stop-color="#32c8ff"></stop>
  </linearGradient>
  <filter id="logoGlow" x="-45%" y="-45%" width="190%" height="190%" color-interpolation-filters="sRGB">
   <feColorMatrix in="SourceGraphic" type="saturate" values="1.65" result="vividSource"></feColorMatrix>
   <feGaussianBlur in="vividSource" stdDeviation="45" result="tightGlow"></feGaussianBlur>
   <feGaussianBlur in="vividSource" stdDeviation="130" result="midGlow"></feGaussianBlur>
   <feGaussianBlur in="vividSource" stdDeviation="300" result="mistGlow"></feGaussianBlur>
   <feComponentTransfer in="tightGlow" result="tightGlowSoft">
    <feFuncA type="linear" slope="0.9"></feFuncA>
   </feComponentTransfer>
   <feComponentTransfer in="midGlow" result="midGlowSoft">
    <feFuncA type="linear" slope="0.62"></feFuncA>
   </feComponentTransfer>
   <feComponentTransfer in="mistGlow" result="mistGlowSoft">
    <feFuncA type="linear" slope="0.32"></feFuncA>
   </feComponentTransfer>
   <feMerge>
    <feMergeNode in="mistGlowSoft"></feMergeNode>
    <feMergeNode in="midGlowSoft"></feMergeNode>
    <feMergeNode in="tightGlowSoft"></feMergeNode>
    <feMergeNode in="SourceGraphic"></feMergeNode>
   </feMerge>
  </filter>
 </defs>
 <g id="Camada_x0020_1">
  <metadata id="CorelCorpID_0Corel-Layer"></metadata>
  <path fill="url(#logoGradient)" stroke="url(#logoGradient)" stroke-width="60" stroke-linecap="round" stroke-linejoin="round" stroke-miterlimit="22.9256" filter="url(#logoGlow)" d="M22788.59 12279.22c-68.54,160.97 -142.78,319.28 -218.56,467.51 -1055.1,2061.89 -2780.75,2920.41 -4338.8,3394.19 -35.57,7.77 -70.7,15.19 -105.58,22.43 -23.16,170.63 -169.29,301.13 -346.27,301.04 -136.38,-0.07 -254.76,-79.45 -312.34,-192.33 -140.1,16.36 -277.94,27.05 -409.74,32.6 -56.98,117.66 -176.88,203.05 -315.01,203.41 -145.95,0.37 -273.24,-91.95 -325.05,-220.56 -335.68,-33.42 -663.04,-105.32 -1009.31,-214.32 -64.12,75.87 -159.12,123.05 -266.27,123.05 -191.97,0 -347.77,-153.96 -349.61,-345.47 -2196.97,-782.8 -3353.37,-1617.76 -4519.61,-3531.66 -52.66,18.44 -108.6,28.29 -167.57,28.29 -280.9,0 -507.98,-227.72 -508.59,-508.59 -0.36,-166.17 79,-313.9 201.92,-406.67 -509.68,-1167.29 -633.03,-2506.52 -345.89,-3317.92 -145.3,-42.42 -251.45,-176.67 -251.45,-335.68 0,-193.11 156.55,-349.66 349.66,-349.66 193.11,0 349.65,156.55 349.65,349.66 0,193.11 -156.54,349.65 -349.65,349.65 -3.76,0 -7.53,-0.06 -11.24,-0.17 -50.86,1035.76 84.16,2149.61 506.19,3205.67 18.7,-2.01 40.1,-3.47 59.4,-3.47 280.89,0 508.59,227.71 508.59,508.59 0,140.12 -56.12,266.45 -147.79,358.43 1166.77,1875.82 1961.79,2414.2 4366.51,3486.52 58.57,-111.05 177,-164.85 309.48,-186.83 200.6,-33.3 353.3,140.37 349.65,349.65 -0.35,20.82 -2.04,42.42 -5.53,62.24 310.62,88.4 610.73,145.13 915.51,171.97 36.19,-154.28 175.11,-272.03 341,-272.03 170.05,0 311.97,122.73 343.39,283.57 113.66,-5.7 229.32,-15 347.66,-27.84 26.93,-167.86 170.83,-299.41 346.04,-299.41 139.25,0 258.81,80 315.05,197.81 87.12,-16.84 175.93,-35.17 266.75,-55.02 2358.67,-809.5 3662.76,-2363.35 4157.63,-3196.13m-12968.29 -5108.03c96.55,0 174.83,78.27 174.83,174.83 0,96.55 -78.28,174.83 -174.83,174.83 -96.56,0 -174.83,-78.28 -174.83,-174.83 0,-96.56 78.27,-174.83 174.83,-174.83zm6810.88 -5516.71c205.36,-19.3 421.51,-30.27 653.95,-34.86 35.69,-0.66 71.36,-1.26 107.05,-1.67 -834.62,-204.55 -1582.67,-322.54 -2503.8,-230.5 -520.9,30 -1011.3,95.99 -1420.07,167.13 -1743.74,303.47 -2959.83,1039.47 -4109.23,2053.01 -1608.83,1418.7 -2462.24,3678.8 -2485.75,5827.65 -50.31,4597.95 3651.38,8364.67 8232.54,8566.02 2095.59,92.09 4297.87,-747.98 5755.09,-2035.64 728.59,-643.83 1359.61,-1481.41 1824.9,-2343.89 197.1,-365.38 359.91,-760.14 493.46,-1168.7 159.82,-437.26 267.83,-767.7 313.78,-1230.07 25.74,-259.05 56.14,-527.31 73.9,-819.81 11.38,-140.26 24.48,-274.49 24.6,-415.34 -707.51,2070.33 -2067.72,3495.56 -4320.98,4076.95 -195.62,-461.95 -918.1,-362.14 -968.82,163.6 -148.42,12.06 -297.71,18.48 -447.63,18.53 -29.45,0.01 -58.86,-0.39 -88.28,-0.81 -2482.59,-35.11 -4881,-1581.73 -6017.41,-3669.68 98.05,-92.7 160.94,-225.58 160.94,-371.19 0,-280.89 -227.7,-508.59 -508.59,-508.59 -14.3,0 -28.51,0.35 -42.49,1.75 -193.34,-554.93 -297.69,-1135.48 -294.17,-1726.56 1.98,-333.7 29.88,-663.48 82.72,-987.08 254.27,-28.13 452.04,-243.7 452.04,-505.48 0,-177.51 -90.16,-333.25 -228.01,-424.21 739.21,-2310.11 2746.21,-4129.59 5260.26,-4400.56m6165.09 10632.79l-7.68 -8.05 269.16 -431.17c-571.35,616.36 -861.02,1021.52 -1617.28,1548.83 -631.47,440.32 -1365.86,726.24 -2128.85,951.52 -35.8,252.05 -245.25,436.73 -503.52,436.73 -196.16,0 -364.91,-108.36 -449.75,-271l-15.86 1.56 -15.85 1.53 -15.85 1.49 -15.84 1.43 -15.83 1.4 -15.83 1.37 -15.82 1.33 -15.81 1.28 -15.81 1.25 -15.8 1.19 -15.81 1.17 -15.78 1.12 -0.01 0 -15.78 1.09 -15.76 1.05 -0.02 0 -15.76 1 -15.76 0.97 -15.75 0.91 -15.75 0.89 -15.73 0.84 -0.01 0 -31.45 1.57 0 0.01 -15.71 0.71 0 0.01 -15.71 0.68 -0.01 0 -15.69 0.65 -31.37 1.17 -15.66 0.52 -0.01 0 -15.66 0.48 -15.65 0.44 -31.26 0.77 -0.02 0 -15.61 0.33 -0.01 0 -15.6 0.28 -0.02 0 -15.58 0.24 -0.02 0 -15.57 0.2 -0.01 0 -15.58 0.17 -0.01 0 -31.12 0.2 -0.01 0 -31.09 0.04 -15.51 -0.03 -0.01 0 -15.51 -0.07 0 -0.01 -15.5 -0.11 -0.01 -0.01 -15.48 -0.15 -0.01 0 -15.48 -0.19 -0.01 -0.02 -15.46 -0.22 0 -0.02 -15.45 -0.26 -0.01 0 -15.44 -0.32 -0.01 0 -15.42 -0.36 0 -0.01 -15.41 -0.39 -0.01 0 -15.4 -0.44 -0.01 -0.01 -15.39 -0.47 -15.37 -0.52 -0.01 0 -15.36 -0.56 -15.35 -0.6 -0.01 0 -15.34 -0.63 0 -0.02 -15.32 -0.67 -0.01 0 -15.31 -0.71 0 -0.02 -15.3 -0.75 0 -0.01 -15.28 -0.79 -15.27 -0.84 0 -0.01 -15.26 -0.88 -15.23 -0.91 -0.01 0 -15.22 -0.97c-2577.41,-166.34 -4780.93,-1753.89 -5847.93,-3832.26 -36.37,8.29 -73.84,12.63 -111.76,12.57 -280.88,-0.55 -508.59,-227.71 -508.59,-508.59 0,-179.38 91.6,-339.09 233.14,-427.61 -199.22,-604.98 -304.79,-1236.7 -299.55,-1876.44 2.61,-318.81 26.18,-637.09 71.46,-951.23 -185.14,-76.01 -315.54,-258.12 -315.54,-470.68 0,-280.88 227.69,-508.59 508.59,-508.59 6.76,0 13.79,0.2 20.48,0.45 565.88,-1930.24 2387.38,-3617.28 4063.64,-4290.22 -572.07,173.35 -1163.23,483.21 -1881.44,837.18 -790.47,389.56 -2380.84,1489.45 -3470.19,3047.06 145.77,47.65 244.25,177.17 244.25,333.47 0,193.1 -156.54,349.65 -349.66,349.65 -193.11,0 -349.65,-156.54 -349.65,-349.65 0,-113.3 54.14,-221.06 139.29,-279.31 92.04,-142.61 188.43,-282.65 288.69,-419.86 1420.28,-1943.77 3524.29,-3052.77 5378.71,-3518.54 -656.45,-3.42 -1884.35,182.84 -2484.65,389.81 -1735.01,692.29 -2030.59,987.01 -3003.12,1845.25 -1224.53,1229.67 -2216.8,3242.61 -2247.26,5471.93 -60.61,4436.21 3596.6,8033.24 8033.22,8033.24 2038.89,0 3900.29,-759.63 5316.74,-2011.26 708.22,-625.81 1305.22,-1374.66 1757.52,-2213.04 139.05,-257.73 264.42,-523.95 375.15,-797.65l136.31 -552.47 -0.62 1.35m-11656.92 -1897.14c140.45,0 254.29,113.86 254.29,254.3 0,140.43 -113.84,254.29 -254.29,254.29 -140.45,0 -254.29,-113.86 -254.29,-254.29 0,-140.44 113.84,-254.3 254.29,-254.3zm-310.49 -3725.95c140.44,0 254.29,113.86 254.29,254.29 0,140.44 -113.85,254.3 -254.29,254.3 -140.45,0 -254.3,-113.86 -254.3,-254.3 0,-140.43 113.85,-254.29 254.3,-254.29zm7717.76 7797.29c140.45,0 254.3,113.86 254.3,254.29 0,140.43 -113.85,254.3 -254.3,254.3 -140.44,0 -254.29,-113.87 -254.29,-254.3 0,-140.43 113.85,-254.29 254.29,-254.29zm-8433.45 -2870.25c140.45,0 254.29,113.86 254.29,254.29 0,140.43 -113.84,254.3 -254.29,254.3 -140.45,0 -254.3,-113.87 -254.3,-254.3 0,-140.43 113.85,-254.29 254.3,-254.29zm7674.51 4355.39c96.56,0 174.83,78.27 174.83,174.83 0,96.55 -78.27,174.83 -174.83,174.83 -96.55,0 -174.83,-78.28 -174.83,-174.83 0,-96.56 78.28,-174.83 174.83,-174.83zm-1037.09 43.68c96.56,0 174.83,78.27 174.83,174.82 0,96.56 -78.27,174.83 -174.83,174.83 -96.55,0 -174.83,-78.27 -174.83,-174.83 0,-96.55 78.28,-174.82 174.83,-174.82zm-1600.63 -311.83c96.55,0 174.83,78.27 174.83,174.82 0,96.56 -78.28,174.83 -174.83,174.83 -96.56,0 -174.83,-78.27 -174.83,-174.83 0,-96.55 78.27,-174.82 174.83,-174.82zm-5694.02 -9515.47c96.56,0 174.83,78.27 174.83,174.83 0,96.55 -78.27,174.83 -174.83,174.83 -96.55,0 -174.82,-78.28 -174.82,-174.83 0,-96.56 78.27,-174.83 174.82,-174.83zm-1318.15 2904.05c-455.3,3445.24 1882.99,6220.34 4901.75,7488.31 -0.63,8.61 -1.16,19.7 -1.16,28.48 0,193.12 156.55,349.66 349.66,349.66 114.23,0 216.04,-55.28 279.83,-139.98 327.92,109.82 663.31,200.16 1004.14,269.35 1.62,191.7 157.51,346.78 349.62,346.78 154.09,0 284.87,-99.58 331.43,-237.96 60.88,7.1 121.9,13.52 183.03,19.26 407.8,38.21 1152.05,-73.84 1510.07,-214.16 -522.81,15.64 -1143.92,70.3 -1523.51,27.33 -53.3,-6.04 -106.5,-12.62 -159.58,-19.7 -34.65,-156.63 -174.38,-274.08 -341.44,-274.08 -124.48,0 -233.84,65.18 -295.78,163.13 -335.98,-72.28 -666.1,-165.36 -988.35,-277.76 0.11,-3.88 0.19,-7.96 0.19,-11.87 0,-193.11 -156.55,-349.75 -349.65,-349.65 -104.91,0.05 -200.52,48.32 -263.7,120.05 -2864.61,-1259.75 -4952.05,-4090.06 -4686.91,-7437.33 46.17,-582.81 197.1,-1137.84 419.57,-1658.73 176.68,-17.52 314.8,-166.62 314.8,-347.92 0,-69.58 -20.34,-134.43 -55.35,-188.88 -23.66,-36.81 -54.09,-68.91 -89.48,-94.53 -27.26,-19.72 -57.47,-35.64 -89.85,-46.91 -36,-12.52 -74.7,-19.34 -114.98,-19.34 -193.11,0 -349.66,156.55 -349.66,349.66 0,122.72 63.36,230.78 158.99,293.12 -255.13,592.7 -408.54,1219.46 -493.68,1863.67zm859.18 -2156.79c0,96.55 -78.27,174.83 -174.83,174.83 -96.56,0 -174.83,-78.28 -174.83,-174.83 0,-96.56 78.27,-174.83 174.83,-174.83 96.56,0 174.83,78.27 174.83,174.83zm4391.07 9498.76c96.56,0 174.83,78.27 174.83,174.82 0,96.56 -78.27,174.83 -174.83,174.83 -96.56,0 -174.83,-78.27 -174.83,-174.83 0,-96.55 78.27,-174.82 174.83,-174.82zm1633.59 476.15c96.55,0 174.83,78.27 174.83,174.83 0,96.55 -78.28,174.83 -174.83,174.83 -96.56,0 -174.83,-78.28 -174.83,-174.83 0,-96.56 78.27,-174.83 174.83,-174.83z"></path>
 </g>
</svg>